<?xml version="1.0" encoding="utf-8"?>
<!-- Generator: Adobe Illustrator 24.1.2, SVG Export Plug-In . SVG Version: 6.00 Build 0)  -->
<svg version="1.1" id="Layer_1" xmlns="http://www.w3.org/2000/svg" xmlns:xlink="http://www.w3.org/1999/xlink" x="0px" y="0px"
	 viewBox="0 0 187 194.1" style="enable-background:new 0 0 187 194.1;" xml:space="preserve">
<style type="text/css">
	.st0{fill:#4E005E;}
	.st1{fill:#36FFBB;}
</style>
<rect class="st0" width="187" height="194.1"/>
<g>
	<path class="st1" d="M97,21.1c21.8,11.6,43.7,22.6,66.3,33.5c1.6,1.4,3.1,3.4,3.1,4.8V127c0,2.1-1.6,4.1-3.9,4.8
		c-21.8,11.6-43.7,22.6-65.5,33.5c-2.3,1.4-4.7,1.4-7,0c-21.8-10.9-43.7-22.6-66.3-33.5c-1.6-1.4-3.1-2.7-3.1-4.8V59.3
		c0-2.1,1.6-4.1,3.9-4.8C46.3,43.6,68.2,32,90,21.1C92.3,20.4,94.7,20.4,97,21.1z M93.1,32.7C73.6,42.9,53.3,52.5,33.8,62.8v60.8
		c19.5,10.3,39.8,20.5,59.3,30.8c20.3-10.3,40.6-20.5,60.1-30.8V62.8C133.7,52.5,113.4,42.9,93.1,32.7z"/>
</g>
</svg>
